<?xml version="1.0" standalone="no"?><!DOCTYPE svg PUBLIC "-//W3C//DTD SVG 1.1//EN" "http://www.w3.org/Graphics/SVG/1.1/DTD/svg11.dtd"><svg t="1571279987921" class="icon" viewBox="0 0 1024 1024" version="1.1" xmlns="http://www.w3.org/2000/svg" p-id="8691" xmlns:xlink="http://www.w3.org/1999/xlink" width="128" height="128"><defs><style type="text/css"></style></defs><path d="M260.2496 320.6656a269.4656 269.4656 0 0 0 538.88 0 269.4656 269.4656 0 1 0-538.88 0z m529.7152 267.8784a53.76 53.76 0 0 0-71.5264 4.608 268.032 268.032 0 0 1-190.2592 79.1552 268.032 268.032 0 0 1-190.3104-79.1552c-19.7632-19.8144-50.2272-22.8352-71.5264-4.608-82.2272 70.0416-143.104 159.8464-162.9184 283.136-7.5776 50.2784 27.392 91.392 79.1552 91.392h695.7056c50.2272 0 86.784-41.1136 79.1552-91.3408-21.2992-123.3408-82.2272-213.1456-167.424-283.136z" p-id="8692"></path></svg>