<?xml version="1.0" standalone="no"?><!DOCTYPE svg PUBLIC "-//W3C//DTD SVG 1.1//EN" "http://www.w3.org/Graphics/SVG/1.1/DTD/svg11.dtd"><svg t="1555482115457" class="icon" style="" viewBox="0 0 1024 1024" version="1.1" xmlns="http://www.w3.org/2000/svg" p-id="3249" xmlns:xlink="http://www.w3.org/1999/xlink" width="200" height="200"><defs><style type="text/css"></style></defs><path d="M649.433 410.044c0-76.826-62.402-139.172-139.419-139.172-77.016 0-139.418 62.346-139.418 139.176 0 77.104 62.402 139.451 139.418 139.451 77.017 0 139.419-62.347 139.419-139.455z m123.023 370.684c0 12.883-10.497 23.696-23.615 23.696-13.114 0-23.893-10.813-23.893-23.696l-0.279-2.349 0.283-2.635c-14.71-103.908-103.813-180.264-212.313-181.582l-2.625 0.283-2.624-0.283c-107.186 1.318-195.54 75.79-211.843 177.82 0.562 2.07 1.031 4.232 1.031 6.302v2.349c0 13.165-10.776 23.978-23.893 23.978-13.396 0-24.077-10.813-24.077-23.978v-0.283h-0.565l0.283-2.066c0-2.07 0.282-3.95 0.748-5.832 12.274-95.727 76.55-173.118 164.06-206.5-51.156-32.628-84.136-90.273-84.136-156.003 0-101.556 79.17-184.118 180.925-184.118 101.937 0 180.925 82.654 180.925 184.118 0 65.734-33.077 123.375-83.858 156.004 86.76 33.193 150.755 109.74 163.873 204.433 0.749 2.631 1.31 5.263 1.31 7.898l0.283 2.444z" p-id="3250"></path><path d="M510.558 7.34C230.664 7.34 4.063 234.765 4.063 515.67S230.664 1024 510.558 1024c279.893 0 506.494-227.423 506.494-508.33S790.451 7.34 510.558 7.34z m0 962.212c-249.647 0-452.245-203.332-452.245-453.882S260.91 61.79 510.558 61.79c249.646 0 452.244 203.332 452.244 453.881 0 250.55-202.12 453.882-452.244 453.882z" p-id="3251"></path></svg>