<?xml version="1.0" standalone="no"?><!DOCTYPE svg PUBLIC "-//W3C//DTD SVG 1.1//EN" "http://www.w3.org/Graphics/SVG/1.1/DTD/svg11.dtd"><svg t="1571279425101" class="icon" viewBox="0 0 1026 1024" version="1.1" xmlns="http://www.w3.org/2000/svg" p-id="5161" xmlns:xlink="http://www.w3.org/1999/xlink" width="128.25" height="128"><defs><style type="text/css"></style></defs><path d="M841.75 139.014C759.16 53.357 643.247 0 514.864 0c-69.2 0-134.721 15.435-193.393 43.135-15.946 7.462-21.67 27.19-12.266 42.01 7.87 12.471 23.816 16.969 37.207 10.734 51.108-24.123 108.246-37.616 168.554-37.616 108.962 0 207.6 44.055 279.152 115.3l47.632-34.55zM77.788 331.384C66.953 370.33 61.127 411.42 61.127 453.84c0 157.822 80.546 296.835 202.796 378.097 14.72 9.813 34.652 4.293 42.318-11.55 6.337-13.084 2.044-28.927-10.12-37.002C189.612 712.548 119.39 591.422 119.39 453.839c0-32.402 3.884-63.783 11.244-93.936l-52.846-28.519z m558.406 559.94c182.149-50.393 318.3-211.485 331.487-406.309 1.124-16.866-12.266-31.074-29.132-31.074-15.435 0-28.007 11.96-29.132 27.292C897.97 650.4 780.012 790.334 621.986 834.696l14.208 56.628z" p-id="5162"></path><path d="M881.104 102.318c-79.831 0-144.534 64.703-144.534 144.534s64.703 144.533 144.534 144.533 144.533-64.703 144.533-144.533-64.703-144.534-144.533-144.534z m0 231.52c-48.042 0-87.088-38.945-87.088-87.089 0-48.041 38.944-87.088 87.088-87.088s87.088 38.945 87.088 87.088-39.047 87.088-87.088 87.088z m-736.569-231.52C64.705 102.318 0.002 167.021 0.002 246.852s64.702 144.533 144.533 144.533 144.533-64.703 144.533-144.533-64.702-144.534-144.533-144.534z m0 231.52c-48.042 0-87.088-38.945-87.088-87.089 0-48.041 39.046-86.985 87.088-86.985s87.088 38.944 87.088 87.088c0 48.041-38.944 86.985-87.088 86.985z m370.43 401.095c-79.83 0-144.533 64.703-144.533 144.534S435.135 1024 514.966 1024c79.83 0 144.533-64.703 144.533-144.533s-64.702-144.534-144.533-144.534z m0 231.622c-48.04 0-87.087-38.945-87.087-87.088 0-48.042 38.944-87.088 87.088-87.088 48.041 0 87.088 38.944 87.088 87.088s-38.944 87.088-87.088 87.088z" p-id="5163"></path></svg>