<?xml version="1.0" standalone="no"?><!DOCTYPE svg PUBLIC "-//W3C//DTD SVG 1.1//EN" "http://www.w3.org/Graphics/SVG/1.1/DTD/svg11.dtd"><svg t="1571280024145" class="icon" viewBox="0 0 1024 1024" version="1.1" xmlns="http://www.w3.org/2000/svg" p-id="11034" xmlns:xlink="http://www.w3.org/1999/xlink" width="128" height="128"><defs><style type="text/css"></style></defs><path d="M666.59 580.267H506.795v-34.134h229.24c31.453-10.871 65.091-17.066 100.249-17.066 35.96 0 70.331 6.502 102.4 17.851V153.6c0-28.28-22.92-51.2-51.2-51.2H68.267c-28.28 0-51.2 22.92-51.2 51.2v580.267c0 28.28 22.92 51.2 51.2 51.2h465.408c14.336-85.35 63.607-158.772 132.915-204.8zM245.862 256c34.765 0 62.942 29.133 62.942 65.075s-28.177 65.075-62.942 65.075-62.941-29.132-62.941-65.075S211.115 256 245.862 256z m-6.929 375.467c-62.873 0-118.545-27.904-153.77-70.895 6.314-73.455 72.687-131.26 153.77-131.26s147.456 57.822 153.788 131.26c-35.26 42.99-90.914 70.895-153.788 70.895zM426.667 256H870.4v34.133H426.667V256z m64.716 153.6H870.4v34.133H491.383V409.6z m512.359 408.388l-44.05-30.19c0-5.65 1.912-11.316 1.912-18.86s0-13.192-1.911-18.858l40.209-32.068c3.84-3.79 3.84-7.544 1.911-11.333l-38.297-66.03c-1.912-1.878-5.752-3.772-11.503-1.878L904.14 657.63c-9.592-7.544-21.06-13.193-32.546-18.859l-7.663-49.05c1.928-5.683-3.823-9.454-7.646-9.454H779.69c-3.84 0-9.575 3.771-9.575 7.526l-7.663 50.944c-11.486 3.772-21.06 11.315-32.546 18.859l-45.96-18.859c-5.752-1.877-9.575 0-13.398 3.772l-38.297 66.03c-1.912 1.895 0 7.544 3.84 11.333l40.192 30.19c0 5.667-1.895 11.316-1.895 18.86s0 13.21 1.895 18.858l-40.192 32.086c-3.84 3.771-3.84 7.526-1.912 11.315l38.298 66.03c1.911 1.878 5.734 3.772 11.486 1.878l47.889-18.859c9.574 7.544 21.06 13.21 32.546 18.86l7.663 49.066c0 3.771 3.823 7.526 9.574 7.526h76.595c3.84 0 9.592-3.772 9.592-7.526l7.646-49.067c11.503-5.649 22.989-11.315 32.563-18.859l47.872 18.86c3.84 1.876 9.591 0 11.503-3.773l38.298-66.03c1.877-3.755 1.877-9.404-1.963-11.299zM817.988 834.97c-36.386 0-67.02-30.191-67.02-66.031s30.634-66.031 67.02-66.031 67.038 30.19 67.038 66.03-30.652 66.032-67.038 66.032z" fill="" p-id="11035"></path></svg>