<svg t="1599230119782" viewBox="0 0 1024 1024" version="1.1" xmlns="http://www.w3.org/2000/svg" p-id="4114" width="200" height="200">
  <path d="M814.681 677.336c-16.483 0-29.968 13.486-29.968 29.968v219.728c0 16.483 13.486 29.968 29.968 29.968s29.968-13.485 29.968-29.967V707.304c0-16.483-13.486-29.968-29.968-29.968zM930.43 723.511c-16.483 0-29.968 13.486-29.968 29.968v173.553c0 16.483 13.486 29.968 29.968 29.968s29.967-13.485 29.968-29.968V753.479c0-16.483-13.486-29.968-29.968-29.968zM700.673 804.535c-16.483 0-29.968 13.486-29.968 29.968v92.529c0 16.483 13.486 29.968 29.968 29.968s29.968-13.485 29.968-29.968v-92.529c0-16.483-13.486-29.968-29.968-29.968zM502.091 786.634l5.659 3.274c10.83 6.266 25.9 0.612 33.489-12.565L687.24 523.846a33.024 33.024 0 0 0 2.821-6.35 25.895 25.895 0 0 0 1.67-9.157 25.886 25.886 0 0 0-2.533-11.183l-0.064-0.137a20.103 20.103 0 0 0-0.383-0.745c-4.371-8.326-13.099-14.042-23.1-14.042H408.664L533.64 265.239c7.589-13.177 4.938-29.085-5.892-35.351l-5.659-3.274c-10.83-6.266-25.9-0.612-33.489 12.565l-146 253.496c-6.68 11.599-5.423 25.31 2.359 32.703 4.791 5.542 11.856 9.067 19.708 9.067h256.419L496.199 751.283c-7.589 13.177-4.938 29.085 5.892 35.351z" p-id="4115"></path>
  <path d="M919.671 613.856c16.311 2.918 31.895-7.947 34.807-24.258 4.658-26.079 7.02-52.84 7.02-79.539 0-60.605-11.862-119.413-35.257-174.792-22.591-53.476-54.926-101.497-96.107-142.729-41.184-41.234-89.15-73.612-142.568-96.233C632.242 72.879 573.492 61 512.947 61S393.652 72.879 338.329 96.307c-53.417 22.621-101.384 54.999-142.568 96.233-41.182 41.231-73.517 89.252-96.108 142.729-23.395 55.378-35.256 114.187-35.256 174.792s11.862 119.414 35.256 174.792c22.591 53.477 54.926 101.497 96.108 142.729 41.184 41.234 89.151 73.612 142.568 96.233 55.323 23.428 114.072 35.307 174.618 35.307 16.568 0 30-13.432 30-30s-13.432-30-30-30c-52.463 0-103.34-10.281-151.22-30.557-46.264-19.592-87.82-47.646-123.513-83.384-35.697-35.74-63.719-77.351-83.29-123.677-20.256-47.95-30.527-98.902-30.527-151.443s10.271-103.493 30.527-151.442c19.571-46.327 47.593-87.938 83.29-123.678 35.693-35.738 77.25-63.792 123.513-83.384C409.607 131.281 460.484 121 512.947 121s103.341 10.281 151.22 30.557c46.264 19.592 87.82 47.646 123.514 83.383 35.696 35.74 63.719 77.351 83.289 123.677 20.257 47.949 30.527 98.902 30.527 151.442 0 23.171-2.047 46.383-6.085 68.99-2.912 16.311 7.948 31.895 24.259 34.807z" p-id="4116"></path>
</svg>