<?xml version="1.0" standalone="no"?><!DOCTYPE svg PUBLIC "-//W3C//DTD SVG 1.1//EN" "http://www.w3.org/Graphics/SVG/1.1/DTD/svg11.dtd"><svg t="1555407250013" class="icon" style="" viewBox="0 0 1024 1024" version="1.1" xmlns="http://www.w3.org/2000/svg" p-id="2820" xmlns:xlink="http://www.w3.org/1999/xlink" width="200" height="200"><defs><style type="text/css"></style></defs><path d="M159.744 1010.176l-10.752-28.16 270.336-102.4-4.608-582.144L157.696 179.2l12.8-27.648 273.92 126.976 5.12 621.568z" p-id="2821"></path><path d="M333.824 567.808a25.088 25.088 0 1 0 50.176 0 25.088 25.088 0 1 0-50.176 0zM855.552 697.344L580.096 490.496 855.552 299.52v130.048h-60.416v-15.36l-112.64 78.336 112.64 84.48V552.96h60.416z" p-id="2822"></path><path d="M795.136 386.048H980.48v59.904H795.136z m0.512 166.912h185.344v59.904H795.648zM684.544 654.336v317.952H184.32v-796.16h500.224v173.056l29.696-20.992V145.92H154.112v856.576H714.24V676.864z" p-id="2823"></path><path d="M765.44 714.24v248.832H103.424V60.928H765.44v231.936l59.904-41.984V1.024H43.008v1021.952h782.336V758.784z" p-id="2824"></path></svg>